<svg display="none" xmlns="http://www.w3.org/2000/svg">
  <symbol id="fb" viewBox="0 0 24 24">
    <path d="M21.1406 0.75H2.85938C2.30045 0.751682 1.7649 0.974459 1.36968 1.36968C0.974459 1.7649 0.751682 2.30045 0.75 2.85938V21.1406C0.751682 21.6995 0.974459 22.2351 1.36968 22.6303C1.7649 23.0255 2.30045 23.2483 2.85938 23.25H12.7031V14.1094H10.242V10.5938H12.7031V8.83612C12.7601 6.86512 13.2701 5.11163 16.6121 4.96913H19.383V8.454H17.0404C16.8913 8.44508 16.742 8.46639 16.6014 8.51667C16.4608 8.56695 16.3318 8.64514 16.2222 8.74656C16.1125 8.84797 16.0246 8.97051 15.9635 9.1068C15.9025 9.24309 15.8697 9.39032 15.867 9.53962V10.5938H19.3826L18.7826 14.1094H15.867V23.25H21.1406C21.6995 23.2483 22.2351 23.0255 22.6303 22.6303C23.0255 22.2351 23.2483 21.6995 23.25 21.1406V2.85938C23.2483 2.30045 23.0255 1.7649 22.6303 1.36968C22.2351 0.974459 21.6995 0.751682 21.1406 0.75V0.75Z" fill="none" stroke-miterlimit="10"/>
  </symbol>
  <symbol id="instagram" viewBox="0 0 24 24">
    <g>
      <path d="M16.5458 0.75H7.45125C5.67639 0.750492 3.97418 1.45487 2.71793 2.70866C1.46169 3.96244 0.753972 5.66327 0.75 7.43813V16.5131C0.754071 18.2879 1.46183 19.9887 2.71806 21.2424C3.9743 22.4961 5.67646 23.2004 7.45125 23.2009H16.5458C18.3211 23.2012 20.0241 22.4972 21.281 21.2433C22.5379 19.9894 23.246 18.2881 23.25 16.5128V7.43775C23.2459 5.66244 22.5378 3.96125 21.2809 2.70746C20.024 1.45368 18.3211 0.749697 16.5458 0.75Z" fill="none" stroke-miterlimit="10"/>
    <path d="M12 6.16881C10.852 6.17103 9.73051 6.51346 8.77712 7.15284C7.82372 7.79222 7.08124 8.69984 6.64349 9.76104C6.20573 10.8222 6.09235 11.9894 6.31766 13.115C6.54297 14.2406 7.09687 15.2742 7.90937 16.0851C8.72187 16.896 9.75651 17.4479 10.8826 17.671C12.0086 17.8942 13.1755 17.7785 14.2359 17.3387C15.2962 16.8989 16.2024 16.1547 16.8399 15.2001C17.4774 14.2454 17.8177 13.1232 17.8177 11.9753C17.8142 10.4344 17.1998 8.95785 16.1092 7.86935C15.0186 6.78085 13.5408 6.1693 12 6.16881V6.16881ZM12 15.5251C11.2986 15.5235 10.6134 15.3141 10.031 14.9233C9.44861 14.5325 8.9951 13.9779 8.72777 13.3294C8.46045 12.681 8.39131 11.9679 8.5291 11.2802C8.66688 10.5925 9.0054 9.96107 9.50189 9.46568C9.99839 8.97029 10.6306 8.63317 11.3186 8.49691C12.0066 8.36065 12.7195 8.43137 13.3674 8.70013C14.0152 8.96889 14.5688 9.42363 14.9583 10.0069C15.3478 10.5902 15.5557 11.2758 15.5557 11.9772C15.5546 12.9192 15.1794 13.8221 14.5126 14.4875C13.8458 15.1528 12.9419 15.5261 12 15.5251ZM19.2236 6.21231C19.2242 6.48826 19.1429 6.75819 18.99 6.98793C18.8371 7.21767 18.6195 7.39689 18.3647 7.50291C18.11 7.60892 17.8295 7.63697 17.5587 7.5835C17.288 7.53002 17.0392 7.39744 16.8439 7.20252C16.6485 7.00759 16.5154 6.7591 16.4614 6.48849C16.4073 6.21788 16.4347 5.93731 16.5402 5.6823C16.6457 5.42729 16.8244 5.2093 17.0538 5.05593C17.2832 4.90255 17.553 4.82068 17.829 4.82068C18.0119 4.82043 18.1931 4.85624 18.3623 4.92605C18.5314 4.99586 18.6851 5.09831 18.8146 5.22755C18.9441 5.35678 19.0469 5.51027 19.1171 5.67924C19.1872 5.8482 19.2234 6.02934 19.2236 6.21231Z" fill="none" stroke-miterlimit="10"/>
    </g>
  </symbol>
  <symbol id="add-icon" viewBox="0 0 12 16">
    <rect x="0.772705" y="2.77274" width="10.4545" height="10.4545" fill="none"/>
    <path d="M8.124 7.526V8.534H6.472V10.326H5.352V8.534H3.7V7.526H5.352V5.734H6.472V7.526H8.124Z"/>
  </symbol>
  <symbol id="upload-icon" viewBox="0 0 7 16">
    <path d="M4.89215 6.0209V9.67246C4.89215 10.0356 4.76913 10.3839 4.55015 10.6407C4.33118 10.8975 4.03418 11.0418 3.7245 11.0418C3.41482 11.0418 3.11783 10.8975 2.89885 10.6407C2.67988 10.3839 2.55686 10.0356 2.55686 9.67246L2.55686 3.28223C2.55686 2.67694 2.76189 2.09645 3.12685 1.66845C3.49181 1.24045 3.9868 1 4.50293 1C4.75849 1 5.01155 1.05903 5.24766 1.17372C5.48377 1.28842 5.6983 1.45652 5.87901 1.66845C6.05972 1.88037 6.20307 2.13196 6.30087 2.40886C6.39867 2.68575 6.44901 2.98252 6.44901 3.28223L6.44901 11.4982C6.44901 12.3456 6.16196 13.1583 5.65102 13.7575C5.14007 14.3567 4.44709 14.6934 3.7245 14.6934C3.00192 14.6934 2.30893 14.3567 1.79799 13.7575C1.28705 13.1583 1 12.3456 1 11.4982L1 6.0209" stroke-width="0.8" stroke-miterlimit="10"/>
  </symbol>
  <symbol id="menu" viewBox="0 0 85 19">
    <g>
      <line y1="3.5" x2="30" y2="3.5"/>
      <line y1="8.5" x2="22" y2="8.5"/>
      <line y1="13.5" x2="15" y2="13.5"/>
      <path d="M29.719 11.021V11.749H28.107V13.504H27.288V11.749H25.676V11.021H27.288V9.266H28.107V11.021H29.719Z"/>
      <path d="M57.4055 13V4.838L53.7795 11.152H53.2055L49.5795 4.838V13H48.5995V3.06H49.6075L53.4855 9.864L57.3915 3.06H58.3855V13H57.4055ZM63.8751 13.14C63.3431 13.14 62.8531 13.042 62.4051 12.846C61.9665 12.6407 61.5838 12.3653 61.2571 12.02C60.9305 11.6653 60.6738 11.2593 60.4871 10.802C60.3098 10.3447 60.2211 9.85467 60.2211 9.332C60.2211 8.81867 60.3098 8.338 60.4871 7.89C60.6738 7.43267 60.9258 7.036 61.2431 6.7C61.5698 6.35467 61.9571 6.084 62.4051 5.888C62.8531 5.68267 63.3385 5.58 63.8611 5.58C64.3931 5.58 64.8785 5.68267 65.3171 5.888C65.7651 6.084 66.1478 6.35467 66.4651 6.7C66.7825 7.04533 67.0298 7.442 67.2071 7.89C67.3845 8.338 67.4731 8.814 67.4731 9.318C67.4731 9.39267 67.4731 9.46733 67.4731 9.542C67.4731 9.61667 67.4685 9.668 67.4591 9.696H61.2151C61.2431 10.088 61.3318 10.452 61.4811 10.788C61.6398 11.1147 61.8405 11.3993 62.0831 11.642C62.3258 11.8847 62.6011 12.076 62.9091 12.216C63.2265 12.3467 63.5625 12.412 63.9171 12.412C64.1505 12.412 64.3838 12.3793 64.6171 12.314C64.8505 12.2487 65.0651 12.16 65.2611 12.048C65.4571 11.936 65.6345 11.8007 65.7931 11.642C65.9518 11.474 66.0731 11.292 66.1571 11.096L66.9831 11.32C66.8711 11.5907 66.7125 11.838 66.5071 12.062C66.3018 12.2767 66.0638 12.468 65.7931 12.636C65.5225 12.7947 65.2238 12.916 64.8971 13C64.5705 13.0933 64.2298 13.14 63.8751 13.14ZM66.5631 8.968C66.5351 8.576 66.4418 8.22133 66.2831 7.904C66.1338 7.57733 65.9378 7.29733 65.6951 7.064C65.4618 6.83067 65.1865 6.64867 64.8691 6.518C64.5611 6.38733 64.2298 6.322 63.8751 6.322C63.5205 6.322 63.1845 6.38733 62.8671 6.518C62.5498 6.64867 62.2698 6.83067 62.0271 7.064C61.7938 7.29733 61.6025 7.57733 61.4531 7.904C61.3131 8.23067 61.2291 8.58533 61.2011 8.968H66.5631ZM75.2139 13H74.2619V8.926C74.2619 8.058 74.1312 7.428 73.8699 7.036C73.6179 6.644 73.2259 6.448 72.6939 6.448C72.4139 6.448 72.1339 6.49933 71.8539 6.602C71.5739 6.70467 71.3126 6.84933 71.0699 7.036C70.8366 7.22267 70.6266 7.44667 70.4399 7.708C70.2532 7.96 70.1179 8.23533 70.0339 8.534V13H69.0819V5.706H69.9499V7.358C70.2486 6.826 70.6732 6.39667 71.2239 6.07C71.7839 5.74333 72.3906 5.58 73.0439 5.58C73.4452 5.58 73.7859 5.65467 74.0659 5.804C74.3459 5.95333 74.5699 6.16333 74.7379 6.434C74.9059 6.70467 75.0272 7.036 75.1019 7.428C75.1766 7.82 75.2139 8.254 75.2139 8.73V13ZM79.666 13.14C78.8727 13.14 78.28 12.8787 77.888 12.356C77.5054 11.824 77.314 11.0353 77.314 9.99V5.706H78.266V9.822C78.266 11.474 78.8307 12.3 79.96 12.3C80.24 12.3 80.5154 12.2533 80.786 12.16C81.0567 12.0667 81.304 11.9313 81.528 11.754C81.7614 11.5767 81.9667 11.3667 82.144 11.124C82.3307 10.8813 82.48 10.606 82.592 10.298V5.706H83.544V11.768C83.544 12.0293 83.656 12.16 83.88 12.16V13C83.768 13.0187 83.6747 13.028 83.6 13.028C83.5347 13.028 83.488 13.028 83.46 13.028C83.236 13.0187 83.054 12.9393 82.914 12.79C82.774 12.6407 82.704 12.44 82.704 12.188V11.348C82.3867 11.9173 81.9527 12.3607 81.402 12.678C80.8607 12.986 80.282 13.14 79.666 13.14Z"/>
    </g>
  </symbol>
</svg>
